HIERARCHY
ROOT newVegas:Hips
{
	OFFSET 0.000000 96.479958 0.000000
	CHANNELS 6 Xposition Yposition Zposition Xrotation Yrotation Zrotation
	JOINT newVegas:Pelvis
	{
		OFFSET 0.000000 0.000000 0.000000
		CHANNELS 3 Xrotation Yrotation Zrotation
		JOINT newVegas:LeftUpLeg
		{
			OFFSET 18.735201 -5.666702 -4.541200
			CHANNELS 3 Xrotation Yrotation Zrotation
			JOINT newVegas:LeftLeg
			{
				OFFSET -0.021200 -31.938179 0.493100
				CHANNELS 3 Xrotation Yrotation Zrotation
				JOINT newVegas:LeftFoot
				{
					OFFSET 0.021200 -31.938179 -4.336299
					CHANNELS 3 Xrotation Yrotation Zrotation
					JOINT newVegas:LeftToeBase
					{
						OFFSET 0.943001 -26.722000 15.023500
						CHANNELS 3 Xrotation Yrotation Zrotation
						End Site
						{
							OFFSET 0.000000 30.670183 0.000000
						}
					}
				}
				JOINT newVegas:Left_PantLeg
				{
					OFFSET 0.663870 -9.044666 -1.108900
					CHANNELS 3 Xrotation Yrotation Zrotation
					End Site
					{
						OFFSET 1.415995 20.635357 0.000000
					}
				}
			}
		}
		JOINT newVegas:RightUpLeg
		{
			OFFSET -18.735201 -5.666702 -4.541200
			CHANNELS 3 Xrotation Yrotation Zrotation
			JOINT newVegas:RightLeg
			{
				OFFSET 0.018946 -31.938133 0.493100
				CHANNELS 3 Xrotation Yrotation Zrotation
				JOINT newVegas:RightFoot
				{
					OFFSET -0.018946 -31.938126 -4.336299
					CHANNELS 3 Xrotation Yrotation Zrotation
					JOINT newVegas:RightToeBase
					{
						OFFSET -0.943001 -26.722004 15.023500
						CHANNELS 3 Xrotation Yrotation Zrotation
						End Site
						{
							OFFSET 0.000000 30.670187 0.000000
						}
					}
				}
				JOINT newVegas:Right_PantLeg
				{
					OFFSET -0.661674 -9.044716 -1.108900
					CHANNELS 3 Xrotation Yrotation Zrotation
					End Site
					{
						OFFSET -1.415958 20.635269 0.000000
					}
				}
			}
		}
	}
	JOINT newVegas:Spine
	{
		OFFSET 0.000000 10.199997 -0.299500
		CHANNELS 3 Xrotation Yrotation Zrotation
		JOINT newVegas:Spine1
		{
			OFFSET 0.000000 11.900002 -1.516600
			CHANNELS 3 Xrotation Yrotation Zrotation
			JOINT newVegas:Spine2
			{
				OFFSET 0.000000 13.600006 -2.842500
				CHANNELS 3 Xrotation Yrotation Zrotation
				JOINT newVegas:Neck
				{
					OFFSET 0.000000 9.624100 -2.890100
					CHANNELS 3 Xrotation Yrotation Zrotation
					JOINT newVegas:Head
					{
						OFFSET 0.000000 14.068802 -1.351900
						CHANNELS 3 Xrotation Yrotation Zrotation
						JOINT newVegas:Hair_Back
						{
							OFFSET 0.000000 3.231903 -17.524799
							CHANNELS 3 Xrotation Yrotation Zrotation
							End Site
							{
								OFFSET 0.000000 19.849884 0.000000
							}
						}
						JOINT newVegas:Hair_Front
						{
							OFFSET 0.000000 31.260406 4.573800
							CHANNELS 3 Xrotation Yrotation Zrotation
							JOINT newVegas:Hair_Front1
							{
								OFFSET 0.000000 2.284103 11.993300
								CHANNELS 3 Xrotation Yrotation Zrotation
								JOINT newVegas:Hair_Front2
								{
									OFFSET 0.000000 2.284103 11.993300
									CHANNELS 3 Xrotation Yrotation Zrotation
									End Site
									{
										OFFSET 0.000000 12.208862 0.000000
									}
								}
							}
						}
						JOINT newVegas:Jowel
						{
							OFFSET 0.000000 -7.458206 6.864100
							CHANNELS 3 Xrotation Yrotation Zrotation
							End Site
							{
								OFFSET 0.000000 19.849884 0.000000
							}
						}
					}
				}
				JOINT newVegas:LeftShoulder
				{
					OFFSET 15.263000 10.923401 -0.547700
					CHANNELS 3 Xrotation Yrotation Zrotation
					JOINT newVegas:LeftArm
					{
						OFFSET 25.438599 -2.830597 -13.032500
						CHANNELS 3 Xrotation Yrotation Zrotation
						JOINT newVegas:LeftForeArm
						{
							OFFSET 29.960503 0.000000 0.000000
							CHANNELS 3 Xrotation Yrotation Zrotation
							JOINT newVegas:LeftHand
							{
								OFFSET 27.849251 0.000000 0.000000
								CHANNELS 3 Xrotation Yrotation Zrotation
								JOINT newVegas:LeftHandThumb1
								{
									OFFSET 4.487587 -3.305161 6.305391
									CHANNELS 3 Xrotation Yrotation Zrotation
									JOINT newVegas:LeftHandThumb2
									{
										OFFSET 5.480453 -3.164139 3.164143
										CHANNELS 3 Xrotation Yrotation Zrotation
										JOINT newVegas:LeftHandThumb3
										{
											OFFSET 5.159721 -2.978973 2.978967
											CHANNELS 3 Xrotation Yrotation Zrotation
											End Site
											{
												OFFSET 2.494507 5.926697 1.738678
											}
										}
									}
								}
								JOINT newVegas:LeftHandIndex1
								{
									OFFSET 18.578728 -0.527832 5.208049
									CHANNELS 3 Xrotation Yrotation Zrotation
									JOINT newVegas:LeftHandIndex2
									{
										OFFSET 3.192009 0.000000 0.000000
										CHANNELS 3 Xrotation Yrotation Zrotation
										JOINT newVegas:LeftHandIndex3
										{
											OFFSET 3.835129 0.000000 0.000000
											CHANNELS 3 Xrotation Yrotation Zrotation
											End Site
											{
												OFFSET -0.034599 3.816971 0.371180
											}
										}
									}
								}
								JOINT newVegas:LeftHandMiddle1
								{
									OFFSET 18.476105 0.000000 0.000000
									CHANNELS 3 Xrotation Yrotation Zrotation
									JOINT newVegas:LeftHandMiddle2
									{
										OFFSET 3.324875 0.000000 0.000000
										CHANNELS 3 Xrotation Yrotation Zrotation
										JOINT newVegas:LeftHandMiddle3
										{
											OFFSET 4.596550 0.000000 0.000000
											CHANNELS 3 Xrotation Yrotation Zrotation
											End Site
											{
												OFFSET 0.057701 4.578827 0.399218
											}
										}
									}
								}
								JOINT newVegas:LeftHandRing1
								{
									OFFSET 17.732719 0.121887 -4.201567
									CHANNELS 3 Xrotation Yrotation Zrotation
									JOINT newVegas:LeftHandRing2
									{
										OFFSET 2.733170 0.000000 0.000000
										CHANNELS 3 Xrotation Yrotation Zrotation
										JOINT newVegas:LeftHandRing3
										{
											OFFSET 3.178268 0.000000 0.000000
											CHANNELS 3 Xrotation Yrotation Zrotation
											End Site
											{
												OFFSET 0.119102 3.170624 0.185394
											}
										}
									}
								}
								JOINT newVegas:LeftHandPinky1
								{
									OFFSET 15.989624 -0.606689 -7.535461
									CHANNELS 3 Xrotation Yrotation Zrotation
									JOINT newVegas:LeftHandPinky2
									{
										OFFSET 2.538986 0.000000 0.000000
										CHANNELS 3 Xrotation Yrotation Zrotation
										JOINT newVegas:LeftHandPinky3
										{
											OFFSET 2.593102 0.000000 0.000000
											CHANNELS 3 Xrotation Yrotation Zrotation
											End Site
											{
												OFFSET -0.150902 2.584198 0.152708
											}
										}
									}
								}
							}
							JOINT newVegas:Left_Sleeve
							{
								OFFSET 0.267448 -0.649796 0.577675
								CHANNELS 3 Xrotation Yrotation Zrotation
								End Site
								{
									OFFSET 0.000000 15.991241 0.000000
								}
							}
							JOINT newVegas:Left_CapeC
							{
								OFFSET 15.715958 -8.608795 -6.935905
								CHANNELS 3 Xrotation Yrotation Zrotation
								JOINT newVegas:Left_CapeC1
								{
									OFFSET 0.000000 -8.688499 0.000000
									CHANNELS 3 Xrotation Yrotation Zrotation
									End Site
									{
										OFFSET 0.000000 8.688499 0.000000
									}
								}
							}
						}
						JOINT newVegas:Left_CapeB
						{
							OFFSET 26.118385 -8.608795 -7.079235
							CHANNELS 3 Xrotation Yrotation Zrotation
							JOINT newVegas:Left_CapeB1
							{
								OFFSET 0.000000 -8.688499 0.000000
								CHANNELS 3 Xrotation Yrotation Zrotation
								End Site
								{
									OFFSET 0.000000 8.688499 0.000000
								}
							}
						}
						JOINT newVegas:Left_CapeA
						{
							OFFSET 5.115639 -8.608795 -10.395809
							CHANNELS 3 Xrotation Yrotation Zrotation
							JOINT newVegas:Left_CapeA1
							{
								OFFSET 0.000000 -8.688499 0.000000
								CHANNELS 3 Xrotation Yrotation Zrotation
								End Site
								{
									OFFSET 0.000000 8.688499 0.000000
								}
							}
						}
					}
				}
				JOINT newVegas:RightShoulder
				{
					OFFSET -15.263000 10.923401 -0.547700
					CHANNELS 3 Xrotation Yrotation Zrotation
					JOINT newVegas:RightArm
					{
						OFFSET -25.438599 -2.830597 -13.032500
						CHANNELS 3 Xrotation Yrotation Zrotation
						JOINT newVegas:RightForeArm
						{
							OFFSET -29.960503 0.000000 0.000000
							CHANNELS 3 Xrotation Yrotation Zrotation
							JOINT newVegas:RightHand
							{
								OFFSET -27.849251 0.000000 0.000000
								CHANNELS 3 Xrotation Yrotation Zrotation
								JOINT newVegas:RightHandThumb1
								{
									OFFSET -4.487587 -3.305161 6.305391
									CHANNELS 3 Xrotation Yrotation Zrotation
									JOINT newVegas:RightHandThumb2
									{
										OFFSET -5.480453 -3.164139 3.164143
										CHANNELS 3 Xrotation Yrotation Zrotation
										JOINT newVegas:RightHandThumb3
										{
											OFFSET -5.159721 -2.978973 2.978967
											CHANNELS 3 Xrotation Yrotation Zrotation
											End Site
											{
												OFFSET -2.494507 5.926697 1.738678
											}
										}
									}
								}
								JOINT newVegas:RightHandIndex1
								{
									OFFSET -18.578728 -0.527832 5.208049
									CHANNELS 3 Xrotation Yrotation Zrotation
									JOINT newVegas:RightHandIndex2
									{
										OFFSET -3.192009 0.000000 0.000000
										CHANNELS 3 Xrotation Yrotation Zrotation
										JOINT newVegas:RightHandIndex3
										{
											OFFSET -3.835129 0.000000 0.000000
											CHANNELS 3 Xrotation Yrotation Zrotation
											End Site
											{
												OFFSET 0.034599 3.816971 0.371180
											}
										}
									}
								}
								JOINT newVegas:RightHandMiddle1
								{
									OFFSET -18.476105 0.000000 0.000000
									CHANNELS 3 Xrotation Yrotation Zrotation
									JOINT newVegas:RightHandMiddle2
									{
										OFFSET -3.324875 0.000000 0.000000
										CHANNELS 3 Xrotation Yrotation Zrotation
										JOINT newVegas:RightHandMiddle3
										{
											OFFSET -4.596550 0.000000 0.000000
											CHANNELS 3 Xrotation Yrotation Zrotation
											End Site
											{
												OFFSET -0.057701 4.578827 0.399218
											}
										}
									}
								}
								JOINT newVegas:RightHandRing1
								{
									OFFSET -17.732719 0.121887 -4.201567
									CHANNELS 3 Xrotation Yrotation Zrotation
									JOINT newVegas:RightHandRing2
									{
										OFFSET -2.733170 0.000000 0.000000
										CHANNELS 3 Xrotation Yrotation Zrotation
										JOINT newVegas:RightHandRing3
										{
											OFFSET -3.178268 0.000000 0.000000
											CHANNELS 3 Xrotation Yrotation Zrotation
											End Site
											{
												OFFSET -0.119102 3.170624 0.185394
											}
										}
									}
								}
								JOINT newVegas:RightHandPinky1
								{
									OFFSET -15.989624 -0.606689 -7.535461
									CHANNELS 3 Xrotation Yrotation Zrotation
									JOINT newVegas:RightHandPinky2
									{
										OFFSET -2.538986 0.000000 0.000000
										CHANNELS 3 Xrotation Yrotation Zrotation
										JOINT newVegas:RightHandPinky3
										{
											OFFSET -2.593102 0.000000 0.000000
											CHANNELS 3 Xrotation Yrotation Zrotation
											End Site
											{
												OFFSET 0.150902 2.584198 0.152708
											}
										}
									}
								}
							}
							JOINT newVegas:Right_CapeC
							{
								OFFSET -15.715958 -8.608795 -6.935905
								CHANNELS 3 Xrotation Yrotation Zrotation
								JOINT newVegas:Right_CapeC1
								{
									OFFSET 0.000000 -8.688499 0.000000
									CHANNELS 3 Xrotation Yrotation Zrotation
									End Site
									{
										OFFSET 0.000000 8.688499 0.000000
									}
								}
							}
							JOINT newVegas:Right_Sleeve
							{
								OFFSET -0.267448 -0.649994 0.577675
								CHANNELS 3 Xrotation Yrotation Zrotation
								End Site
								{
									OFFSET 0.000000 15.991302 0.000000
								}
							}
						}
						JOINT newVegas:Right_CapeA
						{
							OFFSET -5.115540 -8.608795 -10.395824
							CHANNELS 3 Xrotation Yrotation Zrotation
							JOINT newVegas:Right_CapeA1
							{
								OFFSET 0.000000 -8.688499 0.000000
								CHANNELS 3 Xrotation Yrotation Zrotation
								End Site
								{
									OFFSET 0.000000 8.688499 0.000000
								}
							}
						}
						JOINT newVegas:Right_CapeB
						{
							OFFSET -26.118187 -8.608795 -7.079266
							CHANNELS 3 Xrotation Yrotation Zrotation
							JOINT newVegas:Right_CapeB1
							{
								OFFSET 0.000000 -8.688499 0.000000
								CHANNELS 3 Xrotation Yrotation Zrotation
								End Site
								{
									OFFSET 0.000000 8.688499 0.000000
								}
							}
						}
					}
				}
				JOINT newVegas:Left_Collar
				{
					OFFSET 18.625099 8.655502 8.828100
					CHANNELS 3 Xrotation Yrotation Zrotation
					JOINT newVegas:Left_Collar1
					{
						OFFSET 14.783401 10.540405 -1.259500
						CHANNELS 3 Xrotation Yrotation Zrotation
						End Site
						{
							OFFSET 0.000000 18.199875 0.000000
						}
					}
				}
				JOINT newVegas:Collar_Back
				{
					OFFSET 0.000000 15.630707 -20.132601
					CHANNELS 3 Xrotation Yrotation Zrotation
					End Site
					{
						OFFSET 0.000000 22.523010 0.000000
					}
				}
				JOINT newVegas:Left_Peck
				{
					OFFSET 17.239599 -5.132599 25.482599
					CHANNELS 3 Xrotation Yrotation Zrotation
					End Site
					{
						OFFSET 0.000000 22.523010 0.000000
					}
				}
				JOINT newVegas:Right_Peck
				{
					OFFSET -17.239599 -5.132202 25.482599
					CHANNELS 3 Xrotation Yrotation Zrotation
					End Site
					{
						OFFSET 0.000000 22.523010 0.000000
					}
				}
				JOINT newVegas:Right_Collar
				{
					OFFSET -18.625099 8.655792 8.828100
					CHANNELS 3 Xrotation Yrotation Zrotation
					JOINT newVegas:Right_Collar1
					{
						OFFSET -14.783401 10.539993 -1.259500
						CHANNELS 3 Xrotation Yrotation Zrotation
						End Site
						{
							OFFSET 0.000000 18.199631 0.000000
						}
					}
				}
			}
		}
		JOINT newVegas:Belly
		{
			OFFSET 0.000000 -6.540398 9.014299
			CHANNELS 3 Xrotation Yrotation Zrotation
			End Site
			{
				OFFSET 0.000000 11.566666 0.000000
			}
		}
	}
	JOINT newVegas:ElvisFacialAnim_Joint
	{
		OFFSET 1.000000 -95.330101 -8.825800
		CHANNELS 3 Xrotation Yrotation Zrotation
		End Site
		{
			OFFSET 0.000000 35.315800 0.000000
		}
	}
}
MOTION
Frames: 4
Frame Time: 0.016667
-4.978044 120.652435 10.069456 4.381037 -36.843365 4.933718 0.000000 0.000004 -0.000000 -87.651661 -23.980586 26.629461 79.143458 0.521254 7.750815 3.057526 0.154804 -1.408450 -0.000001 -0.000000 0.000000 -0.000001 0.000000 -0.000002 -136.564933 -40.997903 -10.050276 116.466583 17.084362 -14.934350 31.506351 4.477455 33.555046 -0.000000 -0.000000 -0.000002 -0.000001 -0.000001 -0.000002 30.156614 -5.555785 -9.624364 12.785627 1.087592 -3.033124 12.733218 1.050410 -3.241309 -1.987828 4.042630 -2.804583 -1.987829 4.042631 -2.804590 -0.000002 -0.000001 -0.000001 -1.987797 4.042626 -2.804589 -1.987790 4.042634 -2.804591 0.000005 0.000000 -0.000001 -0.000002 -0.000001 -0.000001 9.829639 -9.813822 -1.458548 -62.537738 12.081217 3.106152 46.615580 -25.819860 31.530100 -9.264700 7.312771 9.666252 40.109944 -15.297098 -0.360410 5.639813 28.097616 11.338683 0.000001 -0.000002 -0.000001 6.882251 2.840054 -61.140411 8.247919 7.639989 -89.897939 -0.000000 0.000000 0.000001 -2.345507 4.688819 -62.655327 8.754118 9.897112 -87.051102 0.000001 -0.000001 0.000001 -9.042522 10.045648 -60.766328 8.524103 9.508799 -66.893097 0.000001 0.000001 0.000000 -17.946935 14.754954 -51.485795 8.868387 8.667025 -84.811968 -0.000002 -0.000004 0.000003 0.000000 -0.000001 0.000001 0.000000 -0.000001 0.000001 -0.000000 -0.000001 0.000001 -0.000001 0.000001 -0.000002 -0.000001 0.000000 -0.000000 -0.000001 0.000001 -0.000002 -0.000001 0.000001 -0.000002 14.990500 20.897819 -4.160217 -28.001523 -11.258132 -3.541417 -45.194573 43.244004 34.197716 -6.582781 -10.157724 -10.545306 -1.525700 -5.490523 13.054255 1.517212 -22.702490 -8.022592 0.000001 -0.000001 -0.000004 1.268148 4.823971 -8.200807 0.525038 1.162831 0.172175 0.000000 -0.000001 -0.000001 0.868474 -5.217182 -11.333474 1.480003 -3.605078 20.026709 -0.000002 -0.000000 -0.000004 1.814750 -11.814411 -9.180215 1.792566 -3.024105 21.110260 0.000001 0.000001 -0.000001 2.626215 -21.407346 -3.836551 5.351744 -1.276947 0.651250 0.000000 0.000002 -0.000003 0.000000 0.000001 -0.000001 -0.000001 -0.000000 0.000003 0.000000 0.000001 -0.000003 -0.000002 0.000000 -0.000001 -0.000002 0.000000 0.000000 -0.000002 0.000000 -0.000001 -0.000002 -0.000000 0.000000 -0.000000 -0.000001 -0.000001 -0.000000 -0.000001 -0.000001 -0.000000 -0.000001 -0.000001 -0.000000 -0.000001 -0.000001 -0.000000 -0.000001 -0.000001 -0.000000 -0.000001 -0.000001 -0.000000 -0.000001 -0.000001 0.000001 -0.000001 0.000000 0.000000 0.000004 -0.000000 
-5.050048 120.673752 10.172814 4.313559 -36.537902 4.848368 0.000000 0.000003 -0.000000 -87.991859 -23.539222 25.969740 79.397076 2.421694 8.596620 2.934422 -0.620669 -0.009340 -0.000000 -0.000001 0.000003 0.000002 0.000001 -0.000004 -136.486769 -40.967966 -9.827927 116.324037 17.015487 -14.977254 32.433908 4.654815 34.026735 0.000000 0.000000 0.000000 0.000001 0.000000 0.000000 30.157642 -5.654995 -9.611368 12.788150 1.087584 -3.033132 12.735771 1.050413 -3.241317 -2.136356 4.022271 -2.828432 -2.136349 4.022260 -2.828421 -0.000001 -0.000001 0.000000 -2.136295 4.022279 -2.828433 -2.136309 4.022229 -2.828423 0.000001 -0.000001 0.000001 -0.000001 -0.000001 -0.000000 9.984065 -9.728886 -0.757584 -62.955793 11.135336 3.775609 46.589216 -25.768443 31.469584 -9.041979 6.729831 9.359706 40.109951 -15.297105 -0.360412 5.639810 28.097619 11.338679 0.000000 -0.000002 -0.000003 6.882258 2.840053 -61.140418 8.247920 7.639990 -89.897939 0.000002 -0.000001 0.000001 -2.345504 4.688820 -62.655327 8.754114 9.897108 -87.051096 -0.000001 -0.000002 0.000001 -9.042514 10.045653 -60.766335 8.524096 9.508800 -66.893097 0.000002 0.000001 -0.000001 -17.946927 14.754952 -51.485795 8.868398 8.667025 -84.811968 -0.000002 -0.000003 0.000000 -0.000001 -0.000002 -0.000000 -0.000001 -0.000002 -0.000000 -0.000002 -0.000001 0.000000 0.000000 0.000002 0.000002 0.000000 0.000001 0.000001 0.000000 0.000002 0.000002 0.000000 0.000002 0.000001 15.302909 20.568546 -4.925037 -28.808300 -11.687213 -3.682302 -45.727867 43.802194 34.969223 -6.236518 -12.921149 -11.831705 -1.525698 -5.490521 13.054255 1.517207 -22.702494 -8.022591 0.000003 0.000001 0.000001 1.268149 4.826743 -8.222264 0.524602 1.165252 0.150705 -0.000000 0.000001 0.000000 0.868231 -5.213089 -11.361323 1.477421 -3.598024 19.974663 0.000000 -0.000000 0.000000 1.809776 -11.815189 -9.204575 1.789874 -3.018416 21.069320 -0.000001 -0.000001 -0.000002 2.625005 -21.404747 -3.858347 5.348383 -1.270567 0.567664 -0.000001 0.000001 0.000001 0.000001 -0.000002 -0.000005 0.000001 -0.000002 -0.000004 0.000001 -0.000002 -0.000003 0.000001 0.000000 -0.000000 0.000001 0.000000 -0.000000 0.000001 0.000000 -0.000000 0.000001 -0.000000 -0.000000 -0.000000 0.000000 0.000000 -0.000000 0.000000 0.000000 -0.000000 0.000000 0.000000 -0.000000 0.000000 0.000000 -0.000000 0.000000 0.000000 -0.000000 0.000000 0.000000 -0.000000 0.000000 0.000000 0.000002 -0.000000 -0.000001 0.000000 0.000003 -0.000000 
-5.021711 120.680077 10.220270 4.256381 -36.318247 4.727494 -0.000000 0.000002 -0.000000 -88.053330 -23.575125 25.919176 79.428434 2.358215 8.548132 3.061211 -0.701373 0.211692 -0.000001 0.000000 0.000001 -0.000001 -0.000001 0.000001 -136.709132 -40.911774 -9.842280 116.475598 16.902212 -14.965180 32.610574 4.703054 34.164770 -0.000000 -0.000000 -0.000002 0.000004 0.000001 -0.000001 30.158270 -5.664224 -9.600662 12.798052 1.087548 -3.033115 12.745772 1.050443 -3.241319 -2.138937 4.024125 -2.821614 -2.138910 4.024112 -2.821618 0.000000 0.000000 -0.000000 -2.138926 4.024129 -2.821615 -2.138896 4.024110 -2.821617 -0.000001 0.000000 -0.000000 0.000000 0.000000 -0.000001 10.133433 -9.721066 -0.028974 -63.361384 10.080291 4.356422 46.550027 -25.690312 31.376738 -8.810568 6.229372 9.041436 40.109951 -15.297100 -0.360416 5.639808 28.097619 11.338682 0.000001 -0.000003 -0.000003 6.882258 2.840053 -61.140418 8.247919 7.639995 -89.897939 -0.000003 -0.000000 -0.000000 -2.345500 4.688819 -62.655333 8.754114 9.897117 -87.051102 -0.000001 -0.000001 -0.000001 -9.042522 10.045652 -60.766335 8.524096 9.508800 -66.893104 -0.000003 -0.000002 0.000003 -17.946933 14.754952 -51.485795 8.868394 8.667021 -84.811962 0.000000 -0.000003 0.000002 -0.000000 0.000000 -0.000000 -0.000000 0.000000 -0.000000 -0.000001 0.000000 0.000000 -0.000001 0.000003 0.000001 -0.000001 0.000003 0.000003 -0.000001 0.000003 0.000001 -0.000001 0.000003 0.000001 15.618585 20.231676 -5.707900 -29.640128 -12.140666 -3.854862 -46.313781 44.391804 35.807813 -5.972656 -16.119262 -13.160336 -1.525699 -5.490520 13.054251 1.517209 -22.702494 -8.022591 -0.000000 -0.000002 -0.000001 1.268118 4.834604 -8.283332 0.527611 1.173657 0.089706 -0.000001 -0.000000 -0.000001 0.867566 -5.201537 -11.440756 1.470008 -3.577897 19.826699 0.000001 0.000000 -0.000000 1.800678 -11.816957 -9.274035 1.782255 -3.002207 20.952818 -0.000002 -0.000001 -0.000004 2.621620 -21.397323 -3.920233 5.338781 -1.252261 0.329964 -0.000002 0.000001 0.000001 0.000000 -0.000001 0.000001 0.000000 -0.000002 0.000000 0.000000 -0.000002 -0.000000 0.000002 0.000001 0.000000 0.000001 0.000001 0.000000 0.000002 0.000001 0.000000 0.000001 0.000002 0.000000 0.000001 0.000000 -0.000000 0.000001 0.000000 -0.000000 0.000001 0.000000 -0.000000 0.000001 0.000000 -0.000000 0.000001 0.000000 -0.000000 0.000001 0.000000 -0.000000 0.000001 0.000000 -0.000000 -0.000002 0.000001 -0.000002 -0.000000 0.000002 -0.000000 
-4.988374 120.682571 10.268274 4.200469 -36.102201 4.604464 -0.000000 -0.000002 0.000000 -88.143571 -23.651089 25.884021 79.449361 2.204865 8.459701 3.321234 -0.720384 0.390973 -0.000000 -0.000000 -0.000002 -0.000001 -0.000000 -0.000000 -136.950224 -40.847014 -9.867289 116.624660 16.763774 -14.950097 32.804275 4.755602 34.311551 -0.000000 0.000000 -0.000000 0.000002 -0.000000 -0.000001 30.164103 -5.669656 -9.582710 12.814260 1.087513 -3.033103 12.762086 1.050444 -3.241339 -2.130444 4.022900 -2.815143 -2.130467 4.022889 -2.815129 -0.000002 0.000000 0.000000 -2.130455 4.022895 -2.815135 -2.130375 4.022911 -2.815147 0.000001 -0.000000 0.000000 -0.000002 0.000000 -0.000000 10.281092 -9.782278 0.722431 -63.758607 8.941654 4.845708 46.500269 -25.586442 31.254341 -8.574785 5.831126 8.725817 40.109944 -15.297102 -0.360417 5.639805 28.097619 11.338677 0.000000 -0.000003 0.000000 6.882249 2.840055 -61.140418 8.247920 7.639990 -89.897939 -0.000001 0.000001 0.000000 -2.345508 4.688819 -62.655333 8.754113 9.897113 -87.051102 -0.000002 -0.000000 -0.000000 -9.042521 10.045652 -60.766328 8.524097 9.508802 -66.893104 0.000003 -0.000001 0.000002 -17.946933 14.754957 -51.485795 8.868395 8.667018 -84.811962 0.000001 -0.000000 0.000002 -0.000001 0.000000 -0.000000 -0.000001 0.000000 -0.000000 -0.000002 -0.000000 0.000000 -0.000000 0.000000 -0.000001 0.000000 -0.000001 -0.000000 -0.000000 0.000000 -0.000001 -0.000000 0.000000 -0.000002 15.932596 19.880778 -6.500312 -30.491054 -12.602411 -4.047633 -46.939621 44.997109 36.694877 -5.836494 -19.436195 -14.502609 -1.525700 -5.490521 13.054256 1.517211 -22.702499 -8.022583 0.000001 -0.000003 -0.000003 1.272690 4.847378 -8.379338 0.532371 1.186890 0.002692 0.000001 -0.000000 -0.000001 0.866603 -5.183224 -11.565171 1.458485 -3.546337 19.594619 0.000001 -0.000001 0.000002 1.786142 -11.819739 -9.382938 1.770364 -2.976798 20.770143 0.000001 -0.000001 0.000002 2.616272 -21.385718 -4.017277 5.323954 -1.223551 -0.000108 -0.000001 -0.000000 0.000001 0.000000 -0.000001 -0.000001 0.000000 -0.000001 0.000003 0.000000 -0.000001 0.000002 0.000001 0.000001 -0.000001 0.000001 0.000002 -0.000000 0.000001 0.000001 -0.000001 0.000001 0.000002 -0.000000 -0.000000 0.000003 -0.000002 -0.000000 0.000003 -0.000002 -0.000000 0.000003 -0.000002 -0.000000 0.000003 -0.000002 -0.000000 0.000003 -0.000002 -0.000000 0.000003 -0.000002 -0.000000 0.000003 -0.000002 -0.000002 -0.000001 -0.000002 -0.000000 -0.000002 0.000000 
